<?xml version="1.0" encoding="UTF-8"?>
<svg id="Layer_2" data-name="Layer 2" xmlns="http://www.w3.org/2000/svg" viewBox="0 0 157.84 176.91">
  <defs>
    <style>
      .cls-1 {
        fill: #fd2a50;
      }

      .cls-2 {
        fill: #ccc;
      }
    </style>
  </defs>
  <g id="Layer_1-2" data-name="Layer 1">
    <path class="cls-1" d="m0,124.15L.14,52.45c.01-5.99,3.22-11.51,8.41-14.49L70.71,2.23c5.19-2.98,11.58-2.97,16.75.03l62.02,35.97c5.18,3,8.36,8.54,8.35,14.53l-.14,71.7c-.01,5.99-3.22,11.51-8.41,14.49l-62.16,35.73c-5.19,2.98-11.58,2.97-16.75-.03l-62.02-35.97C3.17,135.67-.01,130.13,0,124.15Z"/>
    <path class="cls-2" d="m143.95,89.04l-61.97,37.56c-1.34.81-3.06-.15-3.06-1.72V16.85c0-1.53,1.64-2.5,2.98-1.77l61.97,33.8c.65.35,1.05,1.03,1.05,1.77v36.67c0,.7-.37,1.36-.97,1.72Z"/>
    <path class="cls-2" d="m81.17,167.08l63.03-38.2c.44-.27.72-.75.72-1.27v-21.45c0-1.17-1.3-1.88-2.28-1.25l-63.03,40.11c-.43.27-.69.75-.69,1.25v19.54c0,1.16,1.27,1.87,2.26,1.27Z"/>
  </g>
</svg>